<svg xmlns="http://www.w3.org/2000/svg" version="1.1" xmlns:xlink="http://www.w3.org/1999/xlink" width="488" height="488"><svg version="1.1" id="SvgjsSvg1051" xmlns="http://www.w3.org/2000/svg" xmlns:xlink="http://www.w3.org/1999/xlink" x="0px" y="0px" viewBox="0 0 488 488" style="enable-background:new 0 0 488 488;" xml:space="preserve">
<style type="text/css">
	.st0{fill:#15593E;}
</style>
<path class="st0" d="M488,244c0,134.8-109.2,244-244,244S0,378.8,0,244C0,109.2,109.2,0,244,0S488,109.2,488,244z M244,40  C131.3,40,40,131.3,40,244c0,112.7,91.3,204,204,204c112.7,0,204-91.3,204-204C448,131.3,356.7,40,244,40z"></path>
<path class="st0" d="M365.7,97.2c2.6,7.2,1.8,14-2.4,20.7l12.4-12.5C373.5,103.2,369.2,99.6,365.7,97.2z"></path>
<path class="st0" d="M378.6,108.3l-12.5,12.5c6.7-4.3,13.6-5.1,20.9-2.4C383.6,113.5,378.6,108.3,378.6,108.3z"></path>
<path class="st0" d="M335.5,93.1c0,0,0.1-0.1,0.2-0.1c3.8-2.1,6.9-2.5,9.5-1.2c2.3,0.6,4.4,2.3,6.3,5c4,5.4,3.5,11.2-1.6,17.4  c-5,6-11.7,7.7-20.2,5c-0.1,0-0.1,0-0.1-0.1c-7.4-3.2-11.9-8-13.5-14.4v9.9c3,8,7.9,13.1,14.9,15.4c7.9,2.5,14.7,1.7,20.4-2.6  c13.1-10.1,16.7-20.9,11.2-32.4c-5.7-3.6-15.9-9.4-30.3-12.4c-9.6,1.2-14.6,6.3-14.7,16.1c-0.1,8.6,4.2,14.8,12.8,18.5  c7.6,2.5,13.6,1,18-4.3c4.4-5.3,4.9-10.3,1.6-15c-1.7-2.2-3.4-3.6-5.4-4.2c0,0-0.1,0-0.2-0.1c-2-1-4.5-0.6-7.5,1.1  c-1.9,1.7-2.8,3.3-2.6,4.8c0.3,1.6,1.7,3,4.3,4.3c0.2,0.1,0.3,0.3,0.4,0.4c-0.7-0.1-1.5-0.2-2.5-0.4c-2.5-0.5-3.9-1.8-4.2-3.9  C331.8,97.7,332.9,95.5,335.5,93.1"></path>
<path class="st0" d="M316.1,80.8v12.1c1.4-5.5,4.8-9.2,10.3-11L316.1,80.8C316.2,80.8,316.2,80.8,316.1,80.8"></path>
<path class="st0" d="M312.1,91.8V80.9c-5.1,0.1-12.3,0.9-16.4,1.9C301.4,84.2,307.1,87.4,312.1,91.8z"></path>
<path class="st0" d="M312.1,108.3V94.6c-6.4-6.2-13.3-9.6-21-10.7c-11.2,3-24,8.7-36.5,19.8C274.3,90.4,293.4,92,312.1,108.3"></path>
<path class="st0" d="M337.4,143.8l13.8-13.9c-5.9,3.9-12.8,4.6-20.8,2c-6.3-2-11-6.1-14.3-12.2v14.8  C321.9,143.7,328.9,146.8,337.4,143.8"></path>
<path class="st0" d="M310.4,123.4C310.4,123.4,310.4,123.4,310.4,123.4c0.7,1.1,1.3,2.2,1.7,3.3V111c-21.4-19.5-43.5-18.7-66.2,2.2  l8.5,8.5c5.3-6.3,11.6-10.4,18.9-12.2c8.9-2.3,17.8-1.2,26.6,3.5h0.1c2.4,1.3,4.5,3.1,6.4,5.3C308.1,120.4,309.5,122.1,310.4,123.4"></path>
<path class="st0" d="M316.1,165l18.4-18.3c-7.1,1.3-13.2-1.5-18.4-8.6V165"></path>
<path class="st0" d="M314.9,171.9l-2.4,2.5c-0.7,1.1-1.4,2.3-2.1,3.4l8.2,8.1c0.1-0.1,0.1-0.1,0.1-0.2c3.7-6.9,8.9-11.5,15.8-13.8  H314.9"></path>
<path class="st0" d="M309.6,171.6l2.5-2.5v-19.7c-2.3,7-6.9,12.2-13.8,15.9c-0.1,0-0.1,0.1-0.2,0.1l8.2,8.2  C307.4,172.9,308.5,172.3,309.6,171.6"></path>
<path class="st0" d="M345.9,167.9c-7-5.2-9.9-11.3-8.6-18.4L319,167.9H345.9"></path>
<path class="st0" d="M359.4,175.3h0.1c-4.5-2.8-10.5-3.8-18-2.9c-9.5,1.2-16.5,5.9-21,14.2c-0.1,0.3-0.3,0.5-0.4,0.8l7.8,7.8  c0.1-0.5,0.3-1,0.5-1.5c3-6.9,8.2-10.1,15.7-9.9c2.1-0.1,5.3,0.9,9.7,3c0,0,0,0,0,0.1c7.1,4.2,10.1,10.2,9.2,18.2c0,0,0,0,0,0.1  c-2.2,6.9-5.4,12-9.9,15.4l7.7,7.7c6.1-5.1,10-11.1,11.8-18.1c2.2-8.4,1-16.9-3.3-25.1c-1.2-2.3-2.9-4.3-4.9-5.9  C362.4,177.5,360.7,176.2,359.4,175.3"></path>
<path class="st0" d="M357.3,171.9c1.2,0.5,2.2,1,3.2,1.7c0.1,0,0.1,0,0.1,0c1.3,0.9,3,2.3,5.1,4.1c2.2,1.8,4,4,5.3,6.4  c4.7,8.8,5.9,17.7,3.6,26.6c-1.9,7.4-6,13.7-12.3,19l8.4,8.5c21-22.8,21.8-44.9,2.3-66.3H357.3"></path>
<path class="st0" d="M352.1,153.7c-2.5-8-1.9-15,2-20.9l-13.8,13.8c-3,8.5,0,15.6,9.3,21.3h14.8  C358.2,164.7,354.1,159.9,352.1,153.7"></path>
<path class="st0" d="M354,153.1c2.3,6.9,7.4,11.9,15.5,14.8h9.9c-6.5-1.6-11.3-6.1-14.5-13.5c0,0,0,0,0-0.1  c-2.8-8.5-1.1-15.2,5-20.2c6.2-5.1,12-5.6,17.4-1.6c2.6,1.9,4.2,4.1,4.9,6.4c1.4,2.5,1,5.6-1.2,9.4c0,0.1-0.1,0.2-0.1,0.2  c-2.4,2.6-4.6,3.7-6.7,3.3c-2.1-0.3-3.4-1.7-4-4.2c-0.2-1-0.3-1.8-0.4-2.5c0.2,0.1,0.3,0.3,0.4,0.4c1.3,2.5,2.8,4,4.3,4.3  c1.5,0.2,3.1-0.7,4.8-2.5c1.7-3.1,2.1-5.6,1.1-7.6c0-0.1,0-0.1-0.1-0.2c-0.6-1.9-2-3.7-4.2-5.4c-4.7-3.3-9.6-2.8-14.9,1.6  c-5.4,4.4-6.9,10.4-4.4,18l-0.1-0.1c3.8,8.7,10,13,18.6,12.9c9.7-0.1,15-5.4,16.1-15c-2.6-12.6-7.5-22.4-12.2-29.9  c-11.7-5.9-22.5-2.1-32.6,11.1C352.4,138.4,351.5,145.2,354,153.1"></path>
<path class="st0" d="M389.5,171.9h-13.8c16.3,18.7,17.9,37.9,4.6,57.5c6.8-7.5,14.9-18.4,20-35.9  C399.2,185.6,395.6,178.3,389.5,171.9"></path>
<path class="st0" d="M403.3,167.9c-0.3-7-0.9-10.8-0.9-10.8c-1.8,5.9-5.8,9.5-11.3,10.8H403.3z"></path>
<path class="st0" d="M403.3,171.9h-11.1c4.4,5,7.4,10,9.1,16.7C401.3,188.6,403,181.1,403.3,171.9z"></path>
<path class="st0" d="M211.9,109.5c1.7,0.4,3.3,0.9,4.9,1.6c8.1,3.5,14.8,10,20.2,19.6c0,0.1,0,0.1,0,0.1c4.7,11.2,4.4,22-1,32.5  c0,0.1,0,0.1,0,0.1c-5.7,9.2-15.2,15.2-28.4,18.2h-0.1c-9.1,1-18-0.6-26.7-4.8l17.1,17.1c17.7,1.4,32.6-6.2,44.6-22.8l-0.2-54.9  c-5.7-5.8-11.5-10.3-17.1-13.4c-17.8-10-35.2-7.2-52.2,8.2v15.7c0.5-1.2,1.1-2.3,1.7-3.2c0-0.1,0-0.1,0.1-0.1c0.9-1.3,2.2-3,4-5.1  c1.8-2.2,4-4,6.4-5.3C194,108.3,202.9,107.2,211.9,109.5"></path>
<path class="st0" d="M194.1,83.9c-8,1.1-14.8,4.7-21.1,10.7v13.7c17.5-15.3,35.4-17.6,53.7-7c1.3,0.7,2.5,1.5,3.8,2.4  C219.7,93.7,205.5,86.8,194.1,83.9z"></path>
<path class="st0" d="M206.2,121c0,0,0.1,0,0.1,0.1c0.2,0,0.3,0.1,0.5,0.1c11.6,3.7,18.1,10.8,19.3,21.4c1.3,10.7-3.2,18.9-13.7,24.8  h-0.1c-8,3.3-16.5,2.6-25.5-2.1c-5.5-3-9.6-6.9-12.1-12c-0.7-1.2-1.2-2.4-1.6-3.8v19.6l2.4,2.5c10.2,6.5,20.8,9.2,31.6,8  c12.6-2.8,21.7-8.5,27.1-17.2c5.1-9.9,5.4-20.2,0.9-30.7c-5.2-9.5-11.8-15.8-19.8-19c-1.3-0.5-2.6-1-3.9-1.3  c-8.5-2.2-16.9-1.1-25.2,3.4c-2.3,1.2-4.2,2.8-5.9,4.8s-3,3.7-3.9,5v-0.1c-2.8,4.5-3.8,10.5-2.8,18c0.4,3.4,1.2,6.5,2.6,9.3  c2.3,5,6.2,8.9,11.6,11.7c8.3,4.4,16.2,5.1,23.7,2.1h-0.1c9.7-5.4,13.9-13,12.7-22.8c-1.2-9.9-7.3-16.5-18.3-19.8  c-0.2,0-0.5-0.1-0.8-0.1c-6.6-0.5-11.7,2.3-15.2,8.3c-2,3.9-2.9,6.8-2.8,8.6v0.1c0,0.4,0,0.7,0,1.1c0.1,6.1,2.9,10.3,8.7,12.7  c1.8,0.8,3.7,1.2,5.6,1.2c2.7,0.1,5-0.8,6.9-2.4c1.9-1.7,2.8-3.7,2.8-6.1c-0.1-2.3-1-4.3-2.7-5.8s-3.2-2.2-4.6-2.1  c-1.3,0.2-2.3,0.5-2.8,1.2c-0.4,0.5-1,1.1-1.9,1.9c-0.1-1.7,0.1-2.9,0.7-3.6c0.6-0.8,1.9-1.3,3.8-1.5c1.9-0.2,3.9,0.7,6.1,2.6  c2.2,1.8,3.4,4.3,3.4,7.3c0,2.9-1.1,5.5-3.5,7.5c-2.2,2.1-5,3.1-8.2,3.1c-2.2-0.1-4.3-0.5-6.4-1.4c-6-2.5-9.2-6.8-9.9-12.7  c-0.1-1-0.1-1.9-0.1-3c-0.1-2.1,0.9-5.3,3.1-9.6c0-0.1,0-0.1,0-0.1C192.1,123.1,198.2,120.1,206.2,121"></path>
<path class="st0" d="M246.4,119.4l0.1,45.9c10.3-9.2,22.4-12.3,36.5-9.3L246.4,119.4"></path>
<path class="st0" d="M304.8,119.6c-1.6-2-3.6-3.6-5.8-4.8c-8.3-4.5-16.7-5.6-25.2-3.4c-7,1.8-13,5.7-18,11.7l7.7,7.7  c3.3-4.4,8.4-7.7,15.3-9.7c0-0.1,0.1-0.1,0.2-0.1c8-0.9,14,2.1,18.2,9.2c0,0,0,0,0,0.1c2.1,4.3,3.1,7.5,3,9.6  c0.3,7.5-3,12.8-9.9,15.7c-0.5,0.2-1,0.3-1.5,0.5l7.8,7.8c0.2-0.1,0.5-0.2,0.8-0.4c8.3-4.4,13-11.4,14.2-21c0.9-7.5,0-13.5-2.9-18  l0.1,0.1C307.9,123.3,306.6,121.6,304.8,119.6"></path>
<path class="st0" d="M285.5,138c0.5,0.7,0.7,1.9,0.6,3.6c-0.8-0.8-1.5-1.4-1.9-1.9c-0.5-0.7-1.4-1-2.7-1.2c-1.4-0.1-3,0.6-4.7,2.1  c-0.7,0.6-1.2,1.2-1.6,1.9l12,12c0.8-0.2,1.5-0.5,2.3-0.8c6.1-2.5,8.9-7.2,8.7-13.8v-0.1c0-1.8-0.9-4.7-2.9-8.6c-3.6-6.3-9-9-16-8.2  c-6.5,2-11.2,5.1-14.3,9.3l8.7,8.7c0.5-0.7,1.1-1.3,1.8-1.9c2.2-1.9,4.3-2.8,6.2-2.6C283.5,136.7,284.8,137.2,285.5,138"></path>
<path class="st0" d="M304.4,177.5l-18.7-18.8c-15.4-4.2-28.4-1-39.2,9.3v13.8C265.3,165.3,284.6,163.9,304.4,177.5"></path>
<path class="st0" d="M308.6,205.1c-6.1-10.9-14-17.7-23.8-20.2c-8.5-2.2-16.8-1.1-25.2,3.4c-2.3,1.1-4.1,2.8-5.8,4.8s-3,3.7-3.9,5  c-2.8,4.4-3.8,10.3-2.9,17.9c1.1,9.6,5.9,16.6,14.2,21c8.4,4.4,16.3,5.1,23.8,2l-0.2,0.1c9.7-5.4,13.9-13,12.8-22.8  c-1.3-9.9-7.4-16.5-18.3-19.8c-7-0.8-12.4,1.9-16.1,8.1c-1.9,4-2.9,6.8-2.8,8.7c0,0,0,0,0,0.1c-0.2,6.6,2.7,11.2,8.7,13.8  c1.9,0.8,3.7,1.2,5.7,1.2c2.7,0,4.9-0.8,6.9-2.5c1.8-1.7,2.8-3.7,2.7-6c0-2.3-0.9-4.3-2.6-5.8s-3.3-2.2-4.7-2.1  c-1.3,0.1-2.3,0.6-3.1,1.6c-0.2,0.2-0.7,0.5-1.4,1c0.1-0.3,0.2-0.7,0.3-1c0.8-2.2,2.2-3.4,4.1-3.5c1.8-0.3,3.8,0.5,6.1,2.5  c2.2,1.8,3.3,4.2,3.4,7.3c0,2.9-1.2,5.4-3.5,7.5c-2.3,2-5,3-8.2,3c-2.2,0-4.4-0.5-6.5-1.3c-6.8-3-10.2-8.2-9.9-15.7  c-0.1-2.1,0.9-5.3,3-9.7c0,0,0,0,0.1,0c4.1-7.1,10.2-10.1,18.1-9.2c0.1,0,0.1,0,0.2,0.1c11.9,3.5,18.5,10.7,19.8,21.5  c1.2,10.6-3.3,18.9-13.8,24.7c0,0,0,0-0.1,0.1c-8,3.3-16.5,2.6-25.4-2.1c-6.9-3.7-11.5-9-13.8-15.8v19.5l2.5,2.5  c10.2,6.6,20.7,9.3,31.6,8.1c12.6-2.8,21.6-8.5,27.1-17.2C312.8,226,313.1,215.7,308.6,205.1"></path>
<path class="st0" d="M258.7,186.5c8.8-4.7,17.6-5.9,26.6-3.6c10.4,2.7,18.7,9.7,25.1,21.3v0.1c4.8,11.2,4.4,22-0.9,32.5  c-0.1,0-0.1,0-0.1,0.1c-5.7,9.1-15.1,15.2-28.3,18.1c-0.1,0-0.1,0-0.1,0c-9.2,1.1-18.1-0.5-26.8-4.7l17.1,17  c16,2.3,30.8-5.9,44.5-24.5v-53.1c-23.8-23.8-47-25.6-69.3-5.3v0.5c0,0.3,0,0.5-0.1,0.8c0.1,0.2,0.1,0.5,0.1,0.8v13.6  c0.5-1.1,1-2.2,1.7-3.2c0.9-1.3,2.3-3.1,4-5.2C254.1,189.6,256.2,187.8,258.7,186.5"></path>
<path class="st0" d="M242.5,186.5c0-0.3,0.1-0.5,0.2-0.8c-0.1-0.1-0.2-0.5-0.2-0.8v-10.5c-11.7,15.1-25.8,22.3-42.5,21.7l8.6,8.5  c11,0.6,22.4-5.2,33.9-17.5V186.5"></path>
<path class="st0" d="M242.5,204.7v-14.6c-10.8,11-21.4,16.5-31.8,16.6l9,9C230,214.6,237.6,210.9,242.5,204.7"></path>
<path class="st0" d="M218.6,220.4c-1.2,9-4.4,16-9.6,21h30.6L218.6,220.4"></path>
<path class="st0" d="M205.9,241.4c6.2-5,9.8-12.6,10.9-22.8l-9-9c-0.1,10.4-5.7,21-16.6,31.8H205.9"></path>
<path class="st0" d="M221.5,217.6l21,20.9v-30.6C237.6,213.1,230.6,216.3,221.5,217.6"></path>
<path class="st0" d="M246.1,247.9l-2.4-2.5h-19.6c6.9,2.3,12.2,6.9,15.8,13.8c4.7,8.9,5.4,17.4,2.1,25.4c0,0.1,0,0.1-0.1,0.1  c-5.7,10.5-14,15.1-24.7,13.7c-10.8-1.2-17.9-7.8-21.6-19.7c0-0.1,0-0.2,0-0.2c-0.9-7.9,2.1-14,9.2-18.2c0,0,0,0,0.1,0  c4.3-2.2,7.5-3.2,9.6-3c7.5-0.3,12.7,3,15.7,9.9c0.9,2.1,1.3,4.2,1.4,6.4c0,3.3-1,6-3.1,8.3c-2.1,2.3-4.6,3.5-7.5,3.4  c-3,0-5.5-1.1-7.3-3.3c-1.9-2.3-2.8-4.3-2.6-6.2c0.2-1.9,1.4-3.2,3.6-4c0.4-0.1,0.7-0.2,1-0.3c-0.5,0.7-0.8,1.2-1,1.3  c-0.9,0.8-1.4,1.9-1.6,3.2c-0.1,1.4,0.6,3,2.1,4.7c1.5,1.7,3.4,2.6,5.8,2.6c2.3,0,4.4-0.9,6-2.8c1.7-1.9,2.6-4.1,2.5-6.9  c0-1.9-0.4-3.8-1.2-5.6c-2.6-6.1-7.2-9-13.8-8.7h-0.1c-1.9-0.1-4.8,0.9-8.6,2.8c-6.3,3.7-9,9-8.2,16c3.3,11,9.9,17.1,19.8,18.4  c9.8,1.1,17.4-3.1,22.8-12.7c3-7.5,2.3-15.4-2.1-23.7c-4.4-8.3-11.4-13.1-21-14.2c-7.5-0.9-13.5,0-17.9,2.8c-1.3,0.9-3,2.3-5,4  c-2,1.6-3.6,3.5-4.8,5.8c-4.5,8.3-5.6,16.7-3.4,25.2c2.5,9.8,9.3,17.7,20.3,23.8c10.5,4.4,20.8,4.1,30.7-0.9  c8.7-5.5,14.4-14.6,17.2-27.1C255.3,268.6,252.7,258.1,246.1,247.9"></path>
<path class="st0" d="M205.4,309.3c-11.6-6.4-18.7-14.7-21.4-25.1c-2.3-9-1.1-17.8,3.6-26.6c1.3-2.5,3.1-4.6,5.3-6.5  c2.1-1.8,5.7-4.8,8.4-5.7h-15.7c-20.4,22.3-18.6,45.5,5.2,69.3h53.1c18.6-13.7,26.8-28.6,24.5-44.6l-17-17  c4.2,8.7,5.8,17.6,4.8,26.7v0.1c-3,13.2-9.1,22.7-18.2,28.4c0,0,0,0-0.1,0.1C227.4,313.7,216.6,314.1,205.4,309.3"></path>
<path class="st0" d="M281.3,283l-10.6-10.6c1.2,15.1-6.6,29.2-23.5,42.2h15.1C276.3,305.1,282.6,294.6,281.3,283"></path>
<path class="st0" d="M273.5,269.6l10.6,10.6c11.6,1.3,22.1-5.1,31.6-19.1l0.1-15C302.7,263,288.7,270.8,273.5,269.6"></path>
<path class="st0" d="M344.2,185.8c0,0,0,0-0.1,0c-6.6-0.2-11.2,2.7-13.8,8.8c-0.3,0.7-0.6,1.5-0.8,2.3l12,12c0.7-0.5,1.3-1,1.9-1.7  c1.5-1.7,2.2-3.3,2.1-4.6c-0.2-1.3-0.5-2.3-1.1-2.8c-0.5-0.4-1.2-1.1-2-1.9c1.7-0.1,2.9,0.2,3.6,0.7c0.8,0.6,1.3,1.9,1.5,3.8  c0.2,1.8-0.7,3.9-2.6,6.2c-0.6,0.6-1.2,1.2-1.9,1.7l8.7,8.8c4.2-3.1,7.3-7.9,9.3-14.4c0.8-7-1.9-12.4-8.1-16.1  C348.9,186.7,346.1,185.8,344.2,185.8"></path>
<path class="st0" d="M358.8,232c-15.2-4.2-28.2-1.1-39,9.2v13.7c18.7-16.2,37.8-17.8,57.5-4.5L358.8,232"></path>
<path class="st0" d="M319.9,192.9l-0.1,45.5c10.2-9.1,22.3-12.1,36.3-9.2L319.9,192.9z"></path>
<path class="st0" d="M352.8,267.7c0.1,0,0.1,0,0.2,0c3.6,1.1,6.6,2.5,9.3,4.2c6.1,4.1,9.6,9.8,10.5,17.4  c1.3,10.6-3.2,18.9-13.7,24.8c-0.1,0-0.1,0-0.1,0c-8,3.3-16.6,2.6-25.5-2.1c-2.5-1.4-4.7-2.9-6.6-4.7c-3.3-3.1-5.7-6.8-7.2-11.1  v19.5l2.5,2.5c10.2,6.6,20.8,9.3,31.6,8.1c12.6-2.8,21.7-8.5,27.1-17.2c5.1-9.9,5.4-20.2,0.9-30.8c-3.3-6-7.2-10.8-11.7-14.2  c-3.7-2.9-7.7-4.9-12.1-6c-8.4-2.2-16.8-1.1-25.2,3.4h0.1c-2.3,1.1-4.2,2.8-5.9,4.8c-1.7,2-3.1,3.7-4,5l0.1-0.1  c-2.8,4.5-3.8,10.4-2.9,18c0.8,6.9,3.5,12.4,8.1,16.7c1.7,1.6,3.8,3.1,6.1,4.3c8.4,4.4,16.3,5.1,23.8,2l-0.1,0.1  c9.6-5.4,13.9-13,12.7-22.8c-0.9-7-4.2-12.4-10-16.1c-2.4-1.5-5.1-2.7-8.3-3.7c-7-0.8-12.4,1.9-16.1,8.2c-1.9,3.9-2.8,6.7-2.7,8.6  c0,0,0,0,0,0.1c-0.2,4.3,1,7.8,3.5,10.4c1.3,1.4,3,2.5,5.1,3.4c1.9,0.8,3.8,1.2,5.7,1.2c2.7,0.1,5-0.8,6.9-2.5  c1.9-1.6,2.8-3.6,2.8-6c-0.1-2.4-1-4.3-2.7-5.8c-1.7-1.5-3.3-2.2-4.6-2.1c-0.7,0.1-1.3,0.2-1.9,0.5c-0.7,0.2-1.3,0.6-1.9,1  c-0.9,0.7-1.7,1.4-2.5,2c0.1-0.2,0.2-0.4,0.3-0.5c0.6-1.6,1.1-2.5,1.2-2.7c1.2-1.3,2.7-2.1,4.6-2.3c0.2,0,0.5,0,0.8,0  c1.6,0.1,3.4,0.9,5.3,2.6c2.2,1.8,3.3,4.3,3.4,7.3c0,2.9-1.2,5.4-3.5,7.5c-2.3,2.1-5,3.1-8.2,3c-2.2,0-4.3-0.4-6.5-1.3  c-2.3-1-4.3-2.3-5.8-3.9c-2.9-2.9-4.2-6.9-4.1-11.8c-0.1-2.1,0.9-5.3,3-9.6c0-0.1,0-0.1,0.1-0.1  C338.8,269.8,344.9,266.7,352.8,267.7"></path>
<path class="st0" d="M331.9,259.7c8.8-4.7,17.7-5.9,26.6-3.6c4.8,1.3,9.1,3.4,13.1,6.5c4.6,3.7,8.6,8.6,12,14.8c0,0.1,0,0.1,0.1,0.1  c4.7,11.2,4.4,22-1,32.5v0.1c-5.8,9.1-15.2,15.2-28.4,18.2c-0.1,0-0.1,0-0.1,0c-9.1,1-18.1-0.6-26.7-4.8l17.1,17.1  c17.4,1.4,32.1-6,44-22.1c6.1-19.7,4.2-39.9-5.7-60.5c-0.2-0.5-0.4-0.9-0.7-1.3c-0.8-0.8-1.7-1.5-2.6-2.2  c-20.5-15.5-40.4-14.5-59.8,3.2v15.6c0.4-1.1,1-2.2,1.6-3.1c0-0.1,0-0.1,0-0.1c0.9-1.3,2.3-3,4.1-5.1  C327.3,262.8,329.4,261,331.9,259.7"></path>
<path class="st0" d="M396.8,279.2c-0.8-1.9-1.7-3.9-2.6-5.7c14,34.2,7,66.2-21.1,95.6l5.5,5.5c16.4-17.1,24.6-37.6,24.6-61.6  C403.2,301,401.1,289.7,396.8,279.2"></path>
<path class="st0" d="M315.7,264.7c-8.9,12.1-18.7,18.1-29.4,17.7l29.4,29.3V264.7"></path>
<path class="st0" d="M169,92.9c0,0,0-11.1,0-12c-5.4,0.1-10.7,0.9-10.7,0.9C163.9,83.5,167.6,87.2,169,92.9z"></path>
<path class="st0" d="M173,91.8c4.9-4.3,10.6-7.6,16.5-9c0,0-7.6-1.8-16.5-1.9V91.8z"></path>
<path class="st0" d="M122.7,95.1c-5.6,11.5-2,22.3,11,32.3c5.8,4.3,12.5,5.1,20.5,2.6c7-2.3,11.9-7.4,14.8-15.5v-9.9  c-1.5,6.4-6,11.3-13.4,14.5c-0.1,0.1-0.1,0.1-0.1,0.1c-8.5,2.7-15.3,1-20.3-5c-5-6.2-5.5-12-1.6-17.4c1.9-2.7,4.1-4.4,6.4-5  c2.5-1.3,5.6-0.9,9.5,1.2c0,0,0.1,0.1,0.2,0.1c2.5,2.4,3.7,4.6,3.2,6.8c-0.3,2.1-1.7,3.4-4.2,3.9c-1,0.2-1.8,0.3-2.5,0.4  c0.1-0.1,0.3-0.3,0.5-0.4c2.5-1.3,3.9-2.7,4.2-4.3c0.2-1.5-0.7-3.1-2.5-4.8c-3.1-1.7-5.7-2.1-7.6-1.1c-0.1,0.1-0.1,0.1-0.2,0.1  c-1.9,0.6-3.7,2-5.4,4.2c-3.3,4.7-2.8,9.7,1.5,15c4.5,5.3,10.5,6.8,18.1,4.4c8.6-3.8,12.9-10,12.9-18.6c-0.2-9.7-5.3-14.9-14.7-16  C141.9,84.9,130.9,89.7,122.7,95.1z"></path>
<path class="st0" d="M119.6,97c-3.5,2.5-6.9,5.4-10.2,8.5l12.5,12.4C117.6,111.2,116.9,104.3,119.6,97"></path>
<path class="st0" d="M83.8,152c1.2,9.2,6.4,14.4,16,14.5c8.6,0.1,14.8-4.2,18.6-12.9c2.4-7.5,0.9-13.5-4.4-17.9  c-5.3-4.4-10.3-4.9-14.9-1.6c-2.3,1.7-3.7,3.5-4.3,5.4c0,0.1,0,0.1,0,0.2c-1,2-0.6,4.5,1,7.6c1.8,1.8,3.4,2.7,4.9,2.5  c1.5-0.3,2.9-1.8,4.3-4.3c0.1-0.1,0.2-0.3,0.4-0.4c-0.1,0.7-0.3,1.5-0.4,2.5c-0.6,2.5-1.9,3.9-4,4.2c-2.1,0.4-4.4-0.7-6.7-3.3  c-0.1,0-0.2-0.1-0.2-0.2c-2.1-3.8-2.5-6.9-1.2-9.4c0.7-2.3,2.3-4.5,5-6.4c5.4-4,11.2-3.5,17.4,1.6c6.1,5,7.7,11.7,5,20.2  c0,0.1,0,0.1,0,0.1c-3.3,7.4-8.1,11.9-14.5,13.5h9.9c8-2.9,13.1-7.9,15.4-14.8c2.5-7.9,1.7-14.7-2.6-20.4  c-10-13.2-20.9-16.7-32.3-11.1C91,129.3,86.1,140.2,83.8,152z"></path>
<path class="st0" d="M98.1,118.4c7.3-2.7,14.3-1.9,20.9,2.4l-12.4-12.5C103.5,111.6,100.6,114.9,98.1,118.4"></path>
<path class="st0" d="M109.4,171.9H95.7c-6.2,6.4-9.6,13-10.7,20.9c3.7,14,10.8,26.4,19.8,36.6c-0.9-1.3-1.7-2.5-2.4-3.8  C91.8,207.3,94.2,189.4,109.4,171.9"></path>
<path class="st0" d="M133,153.7c-1.9,6.2-6,10.9-12.2,14.2h14.8c9.1-5.8,12.3-12.8,9.3-21.3l-13.8-13.8  C134.9,138.7,135.6,145.7,133,153.7"></path>
<path class="st0" d="M124.6,173.6c1-0.7,2.1-1.2,3.2-1.7h-15.7c-15.4,17-18.1,34.3-8.2,52.2c2.7,4.7,6.2,9.5,10.8,14.4  c0.6,0.5,2.5,2.6,2.6,2.7l51.3-0.1l3.8,0.1c16.5-12,24-26.8,22.6-44.4l-17.1-17.1c4.3,8.7,5.9,17.5,4.8,26.6c0,0.1,0,0.1,0,0.2  c-2.9,13.2-9,22.6-18.2,28.3c0,0.1,0,0.1,0,0.1c-10.5,5.4-21.4,5.7-32.5,1c-0.1-0.1-0.1-0.1-0.1-0.1c-9.7-5.3-16.2-12-19.6-20.1  c-0.7-1.6-1.3-3.3-1.7-5c-2.3-8.9-1.2-17.8,3.5-26.6c1.3-2.4,3.1-4.6,5.3-6.4C121.5,175.9,123.3,174.5,124.6,173.6"></path>
<path class="st0" d="M125.7,175.3c-1.3,0.9-2.9,2.2-5,3.9c-2,1.6-3.6,3.6-4.8,5.9c-4.4,8.2-5.6,16.7-3.4,25.1  c0.4,1.4,0.8,2.7,1.3,3.9c3.2,8,9.6,14.7,19,19.9c10.6,4.5,20.8,4.2,30.7-0.9c8.7-5.5,14.4-14.5,17.3-27c1.1-10.9-1.6-21.5-8.1-31.7  l-2.5-2.5h-19.6c1.3,0.4,2.6,1,3.8,1.6c5.1,2.6,9.1,6.7,12,12.2c4.8,9,5.5,17.4,2.1,25.5c0,0,0,0,0,0.1c-5.8,10.5-14.1,15-24.8,13.7  c-10.6-1.3-17.7-7.7-21.4-19.4c0-0.1-0.1-0.3-0.1-0.4c-0.1-0.1-0.1-0.1-0.1-0.1c-0.9-8,2.2-14,9.2-18.2c0.1-0.1,0.1-0.1,0.1-0.1  c4.3-2.1,7.5-3.1,9.6-3c1.1,0,2.1,0,3,0.1c6,0.7,10.2,3.9,12.7,9.8c0.9,2.1,1.4,4.3,1.4,6.5c0,3.2-1,5.9-3,8.2  c-2.1,2.3-4.6,3.5-7.6,3.5c-3-0.1-5.4-1.2-7.3-3.3c-2-2.3-2.8-4.4-2.5-6.2c0.1-1.9,0.6-3.2,1.4-3.8c0.7-0.5,1.9-0.8,3.6-0.7  c-0.8,0.8-1.5,1.5-2,1.9c-0.5,0.5-0.9,1.5-1,2.8c-0.1,1.3,0.5,2.9,2,4.6c1.5,1.7,3.5,2.6,5.8,2.6c2.4,0.1,4.4-0.9,6.1-2.7  c1.7-1.9,2.5-4.2,2.5-6.9c0-1.9-0.5-3.8-1.2-5.6c-2.5-5.8-6.7-8.7-12.8-8.8c-0.4,0-0.7,0-1.1,0c0,0,0,0-0.1,0  c-1.8,0-4.7,0.9-8.7,2.8c-5.9,3.6-8.6,8.7-8.1,15.3c0,0.2,0,0.5,0,0.8c3.4,11,10,17.1,19.9,18.4c9.8,1.1,17.4-3.2,22.7-12.8v0.1  c3-7.5,2.4-15.4-2.1-23.8c-2.8-5.3-6.7-9.2-11.7-11.6c-2.7-1.3-5.9-2.2-9.3-2.6C136.1,171.5,130.2,172.5,125.7,175.3"></path>
<path class="st0" d="M154.8,131.9c-8.1,2.6-15,1.9-20.9-2l13.8,13.9c8.5,3,15.6-0.1,21.3-9.3v-14.9  C165.8,125.8,161.1,129.9,154.8,131.9"></path>
<path class="st0" d="M150.7,146.7l18.4,18.4l-0.1-27C163.9,145.2,157.7,148,150.7,146.7"></path>
<path class="st0" d="M166.2,167.9l-18.4-18.4c1.3,7.1-1.6,13.2-8.6,18.4H166.2"></path>
<path class="st0" d="M82.8,157c0,0,0,0.1-0.1,0.2c-0.2,1.6-0.3,3.2-0.4,4.9c-0.1,0-0.1,0.1-0.1,0.2c-0.1,1.8-0.2,3.7-0.2,5.6h12  C88.3,166.5,84.6,162.9,82.8,157"></path>
<path class="st0" d="M82,171.9c0,1.1,0,2.2,0.1,3.3c0,0.1,0,0.1,0,0.2l1.9,12.5c1.6-5.8,4.6-11.1,9-16H82"></path>
<path class="st0" d="M90.9,273.6c-0.9,1.8-1.8,3.7-2.5,5.6C84.1,289.7,82,301,82,313c0,24,8.2,44.5,24.6,61.6l5.4-5.5  C84,339.7,77,307.8,90.9,273.6"></path>
<path class="st0" d="M188.3,241.4c12.2-11.6,18-22.9,17.5-33.9l-8.6-8.6c0.6,16.6-6.5,30.7-21.5,42.3L188.3,241.4z"></path>
<path class="st0" d="M139.8,270.3c-2.1-0.7-4.6-0.9-7.1-0.6c-11,3.3-17.1,9.9-18.3,19.8c-1.2,9.8,3,17.4,12.6,22.8l-0.1-0.1  c7.5,3.1,15.5,2.4,23.8-2c6.8-3.6,11.2-8.9,13.2-15.9l-10.8-10.7c0.3,1.2,0.5,2.2,0.4,3c0.3,7.5-3,12.7-9.9,15.7  c-2.1,0.9-4.2,1.3-6.4,1.3c-3.3,0.1-6-0.9-8.3-3c-2.3-2.1-3.4-4.6-3.4-7.5c0-3,1.1-5.5,3.3-7.3c2.3-1.9,4.3-2.8,6.2-2.6  c1.9,0.2,3.4,1,4.5,2.3c0.2,0.2,0.6,1.1,1.3,2.7c0.1,0.1,0.1,0.3,0.2,0.5c-0.8-0.6-1.6-1.3-2.5-2c-1.1-0.9-2.4-1.4-3.8-1.5  c-1.3-0.1-2.9,0.6-4.6,2.1s-2.6,3.4-2.6,5.8s0.9,4.4,2.7,6c2,1.7,4.2,2.6,7,2.5c1.9,0,3.8-0.4,5.6-1.2c6.1-2.6,8.9-7.2,8.7-13.8  c0-0.1,0-0.1,0-0.1c0.1-1.5-0.5-3.5-1.6-6.2L139.8,270.3"></path>
<path class="st0" d="M127.5,258c-0.1,0-0.3,0.1-0.4,0.1c-9.8,2.5-17.7,9.3-23.8,20.2c-4.4,10.6-4.1,20.9,0.9,30.8  c5.5,8.7,14.5,14.4,27.1,17.2c10.9,1.2,21.4-1.5,31.7-8.1l2.4-2.5v-19.5c-2.3,6.9-6.9,12.1-13.8,15.8c-8.9,4.7-17.4,5.4-25.4,2.1  c-0.1,0-0.1,0-0.1,0c-10.5-5.9-15.1-14.2-13.7-24.8c1.2-10.8,7.8-18,19.7-21.6c0.1,0,0.1,0,0.2,0c1.7-0.2,3.4-0.2,4.9-0.1L127.5,258  "></path>
<path class="st0" d="M115.5,246l-1.6-1.6l-5.9,5.9C110.5,248.6,113,247.2,115.5,246"></path>
<path class="st0" d="M102.2,258L102.2,258c-9.8,20.6-11.7,40.8-5.6,60.5c11.9,16.1,26.5,23.5,44,22.1l17.1-17.1  c-8.7,4.2-17.6,5.8-26.7,4.8h-0.1c-13.2-3-22.7-9.1-28.4-18.2c0,0,0-0.1-0.1-0.1c-5.3-10.5-5.7-21.3-0.9-32.5c0,0,0,0,0-0.1  c6.2-11.3,14.4-18.3,24.4-21.1l-8.8-8.8c-4.7,2.1-9.4,5.2-14.2,9.2C102.7,257.1,102.5,257.5,102.2,258"></path>
<path class="st0" d="M157.1,281.9c-3-14.2,0.2-26.5,9.5-36.8l-46.1,0.1L157.1,281.9"></path>
<path class="st0" d="M175.4,305.8l-5.9-5.9v11.8L175.4,305.8"></path>
<path class="st0" d="M182.9,245.3l-13.5-0.2c-10.6,10.9-13.7,24-9.6,39.5l18.8,18.7C165,283.5,166.4,264.2,182.9,245.3"></path>
<path class="st0" d="M181.8,340.4c2.9-6.9,8.1-10.2,15.6-9.9c0.8-0.1,1.9,0.1,3.1,0.4l-10.8-10.7c-7,2-12.3,6.4-15.9,13.1  c-4.4,8.4-5.1,16.4-2,23.8V357c5.3,9.6,12.9,13.9,22.7,12.7c9.9-1.3,16.5-7.4,19.8-18.3c0.3-2.7,0.1-5.1-0.6-7.3l-9.9-9.9  c-2.7-1.2-4.8-1.7-6.3-1.7c0,0,0,0-0.1,0c-6.6-0.2-11.2,2.6-13.8,8.7c-0.8,1.8-1.2,3.8-1.2,5.7c0,2.6,0.8,5,2.5,6.9  c1.7,1.9,3.7,2.7,6,2.7c2.4,0,4.3-0.8,5.8-2.6c1.5-1.7,2.2-3.2,2.1-4.7c-0.1-1.3-0.7-2.5-1.5-3.7c-0.7-0.9-1.3-1.8-1.9-2.5  c0.1,0,0.3,0.2,0.5,0.2c1.5,0.7,2.3,1.1,2.6,1.3c1.4,1.2,2.1,2.7,2.3,4.5c0.2,1.9-0.6,4-2.6,6.2c-1.8,2.2-4.3,3.3-7.3,3.4  c-2.9,0-5.4-1.2-7.5-3.4c-2-2.4-3-5.1-3-8.4C180.4,344.7,180.9,342.5,181.8,340.4"></path>
<path class="st0" d="M168.3,318.6l-2.5,2.5c-6.6,10.2-9.3,20.7-8.1,31.6c2.8,12.6,8.5,21.6,17.2,27.1c9.9,5.1,20.2,5.3,30.8,0.9  c10.9-6.1,17.7-14,20.2-23.8c0.1-0.2,0.1-0.3,0.2-0.5l-9.8-9.7c0.2,1.6,0.2,3.2,0,5c0,0.1,0,0.1,0,0.2  c-3.6,11.9-10.8,18.5-21.5,19.8c-10.8,1.3-19-3.3-24.8-13.7c0-0.1,0-0.1,0-0.1c-3.4-8.1-2.7-16.6,2-25.5c3.7-6.9,9-11.5,15.8-13.8  L168.3,318.6"></path>
<path class="st0" d="M155.8,353.2c0-0.1,0-0.1,0-0.2c-1.1-9.1,0.5-18,4.7-26.6l-17.1,17c-1.3,17.5,6,32.1,22.1,44  c19.7,6.1,39.9,4.3,60.5-5.6c0.5-0.3,1-0.5,1.4-0.7c4-4.8,7-9.5,9.2-14.3l-8.9-8.7c-2.8,10-9.8,18.2-21.1,24.4c0,0-0.1,0-0.1,0.1  c-11.2,4.7-22,4.3-32.5-1c0-0.1,0-0.1,0-0.1C164.8,375.8,158.7,366.4,155.8,353.2"></path>
<path class="st0" d="M172.3,314.6h11.8l-5.9-5.9L172.3,314.6"></path>
<path class="st0" d="M94.8,319.3c-0.1,0-0.1,0-0.1-0.1c-5.5-17.6-4.8-35.6,2.2-53.9c-18.8,36.9-13.3,71,16.6,102.4l6.6-6.6  C107.6,347.4,99.2,333.5,94.8,319.3"></path>
<path class="st0" d="M141.3,345.6l-16.9,16.9c11.6,10.6,23.4,18.2,35.4,22.9C146.8,374.3,140.7,361,141.3,345.6"></path>
<path class="st0" d="M98.6,324.2c4.7,12,12.3,23.8,22.9,35.5l17-17C123,343.3,109.7,337.2,98.6,324.2"></path>
<path class="st0" d="M123,363.9l-6.7,6.7c31.4,29.8,65.5,35.3,102.4,16.5c-18.3,7-36.3,7.7-53.9,2.2c-0.1,0-0.1,0-0.1,0  C150.5,384.8,136.6,376.4,123,363.9"></path>
<path class="st0" d="M114.9,372l-5.5,5.4c17.1,16.4,37.6,24.6,61.6,24.7c12.1-0.1,23.4-2.2,33.9-6.4h-0.1c1.9-0.8,3.8-1.7,5.6-2.6  C176.2,407,144.4,400,114.9,372"></path>
<path class="st0" d="M390.4,319.2c0,0.1,0,0.1,0,0.1c-4.4,14.2-12.9,28.1-25.4,41.8l6.7,6.6c29.8-31.4,35.3-65.5,16.5-102.4  C395.2,283.6,396,301.6,390.4,319.2"></path>
<path class="st0" d="M363.6,359.7c10.6-11.7,18.3-23.5,22.9-35.5c-11.1,13-24.3,19.1-39.8,18.5L363.6,359.7"></path>
<path class="st0" d="M319.4,321.1l-2.5-2.5h-19.6c4.4,1.5,8,3.9,11.1,7.2c1.8,1.9,3.4,4.1,4.7,6.6c4.8,8.9,5.5,17.4,2.1,25.5  c0,0,0,0,0,0.1c-5.8,10.4-14.1,15-24.8,13.7c-7.6-0.9-13.3-4.5-17.4-10.6c-1.7-2.6-3.1-5.7-4.2-9.2c0-0.1,0-0.1,0-0.2  c-1-7.9,2.1-14,9.2-18.1c0-0.1,0-0.1,0.1-0.1c4.2-2.2,7.5-3.2,9.6-3c5-0.2,8.9,1.2,11.9,4.1c1.5,1.6,2.7,3.4,3.7,5.8h0.1  c0.9,2.1,1.3,4.3,1.4,6.4c0,3.3-1,6-3,8.4c-2.1,2.2-4.7,3.4-7.6,3.4c-3-0.1-5.4-1.2-7.4-3.4c-1.6-1.9-2.5-3.7-2.5-5.4  c0-0.2,0-0.5,0-0.8c0.2-1.8,1-3.3,2.4-4.5c0.1-0.2,1.1-0.6,2.6-1.3c0.2,0,0.3-0.2,0.5-0.2c-0.6,0.7-1.3,1.6-2,2.5  c-0.4,0.6-0.7,1.2-1,1.9c-0.2,0.6-0.4,1.3-0.5,1.8c-0.1,1.5,0.7,3,2.1,4.7c1.5,1.8,3.4,2.6,5.8,2.6c2.4,0,4.4-0.8,6.1-2.7  c1.7-1.9,2.5-4.3,2.5-6.9c-0.1-1.9-0.5-3.9-1.3-5.7c-0.9-2.1-2-3.8-3.4-5.2c-2.6-2.5-6.1-3.6-10.4-3.5c0,0,0,0-0.1,0  c-1.9,0-4.8,0.9-8.6,2.8c-6.3,3.7-9,9-8.2,16.1c1,3.1,2.2,5.9,3.7,8.3c3.7,5.7,9.1,9.1,16.1,10c9.9,1.2,17.4-3.1,22.8-12.7v0.1  c3-7.4,2.3-15.4-2.1-23.8c-1.2-2.3-2.7-4.4-4.3-6.1c-4.3-4.6-9.8-7.3-16.7-8.1c-7.5-0.9-13.5,0-18,2.9l0.1-0.1c-1.3,0.9-3,2.2-5.1,4  c-2,1.6-3.5,3.6-4.7,5.8c-4.4,8.3-5.6,16.7-3.4,25.2c1.1,4.4,3.1,8.4,6,12.1c3.5,4.4,8.2,8.4,14.3,11.7c10.5,4.4,20.8,4.2,30.7-0.9  c8.7-5.5,14.4-14.5,17.2-27.1C328.6,341.8,325.9,331.3,319.4,321.1"></path>
<path class="st0" d="M329.4,353c0,0.1,0,0.1,0,0.2c-3,13.2-9,22.6-18.2,28.3c0,0,0,0-0.1,0.1c-10.4,5.3-21.3,5.7-32.5,1  c0-0.1,0-0.1,0-0.1c-6.3-3.5-11.3-7.5-14.9-12.1c-3.1-3.9-5.2-8.2-6.4-13c-2.4-8.9-1.2-17.8,3.5-26.6c1.3-2.5,3-4.6,5.3-6.5  c2.1-1.7,3.8-3.1,5.1-4c0,0,0,0,0.1,0c0.9-0.7,2-1.2,3-1.7h-15.5c-17.7,19.4-18.7,39.4-3.1,59.9c0.6,0.9,1.3,1.7,2.1,2.6  c0.4,0.2,0.8,0.4,1.3,0.7c20.6,9.9,40.8,11.7,60.5,5.6c16.1-11.9,23.5-26.5,22.1-44l-17.1-17C328.8,335,330.5,343.9,329.4,353"></path>
<path class="st0" d="M360.8,362.5l-16.9-16.9c0.6,15.4-5.6,28.7-18.5,39.8C337.3,380.7,349.2,373.1,360.8,362.5"></path>
<path class="st0" d="M320.5,389.3h-0.1c-17.7,5.5-35.6,4.8-54-2.2c36.9,18.8,71.1,13.3,102.5-16.5l-6.7-6.7  C348.5,376.4,334.6,384.8,320.5,389.3"></path>
<path class="st0" d="M375.7,377.4l-5.4-5.4c-29.5,28-61.4,35-95.6,21.1c1.8,0.9,3.7,1.8,5.6,2.6c10.5,4.2,21.8,6.3,33.9,6.3  C338.1,402,358.6,393.8,375.7,377.4"></path>
<path class="st0" d="M239.7,370l-1.6-1.6c-1.2,2.6-2.7,5.1-4.4,7.7L239.7,370"></path>
<path class="st0" d="M233.1,357.7l18.3,18.3c-13.1-19.6-11.5-38.7,4.7-57.4l-13.8,0.1C232,329.4,228.9,342.4,233.1,357.7"></path>
<path class="st0" d="M230.4,355c-3-14,0.1-26.1,9.1-36.3H194L230.4,355z"></path>
<path class="st0" d="M265.8,314.6h47l-29.3-29.3C283.9,295.9,278,305.7,265.8,314.6"></path>
</svg><style>@media (prefers-color-scheme: light) { :root { filter: none; } }
@media (prefers-color-scheme: dark) { :root { filter: none; } }
</style></svg>